# This file uses centimeters as units for non-parametric coordinates.

v -0.412112 0.019279 -0.040530
v -0.448973 0.038779 0.288589
v 0.012262 1.716218 0.203598
v 0.396730 0.022034 0.215059
v 0.049123 1.696718 -0.125521
v 0.433591 0.002535 -0.114060
vt 0.375000 0.000000
vt 0.375000 0.250000
vt 0.375000 0.500000
vt 0.625000 0.500000
vt 0.375000 0.750000
vt 0.625000 0.750000
vt 0.375000 1.000000
vt 0.125000 0.000000
vt 0.125000 0.250000
vn 0.087108 0.026505 0.995846
vn 0.087108 0.026505 0.995846
vn 0.087108 0.026505 0.995846
vn 0.970596 0.220908 0.095617
vn 0.970596 0.220908 0.095617
vn 0.970596 0.220908 0.095617
vn 0.970596 0.220908 0.095617
vn -0.958511 0.257344 -0.122599
vn -0.958511 0.257344 -0.122599
vn -0.958511 0.257344 -0.122599
vn -0.958511 0.257344 -0.122599
vn -0.087108 -0.026505 -0.995846
vn -0.087108 -0.026505 -0.995846
vn -0.087108 -0.026505 -0.995846
vn -0.014766 -0.998237 0.057491
vn -0.014766 -0.998237 0.057491
vn -0.014766 -0.998237 0.057491
vn -0.014766 -0.998237 0.057491
f 2/2/1 4/4/2 3/3/3
f 3/3/4 4/4/5 6/6/6 5/5/7
f 5/8/8 1/1/9 2/2/10 3/9/11
f 5/5/12 6/6/13 1/7/14
f 2/2/15 1/7/16 6/6/17 4/4/18
