# This file uses centimeters as units for non-parametric coordinates.

v -0.416068 0.021372 -0.005204
v -0.436908 0.032396 0.180867
v 0.022541 1.710780 0.111816
v 0.400687 0.019941 0.179733
v 0.043381 1.699755 -0.074255
v 0.421526 0.008917 -0.006338
vt 0.375000 0.000000
vt 0.375000 0.250000
vt 0.375000 0.500000
vt 0.625000 0.500000
vt 0.375000 0.750000
vt 0.625000 0.750000
vt 0.375000 1.000000
vt 0.125000 0.000000
vt 0.125000 0.250000
vn 0.001956 0.040572 0.999175
vn 0.001956 0.040572 0.999175
vn 0.001956 0.040572 0.999175
vn 0.970596 0.220908 0.095617
vn 0.970596 0.220908 0.095617
vn 0.970596 0.220908 0.095617
vn 0.970596 0.220908 0.095617
vn -0.958511 0.257344 -0.122599
vn -0.958511 0.257344 -0.122599
vn -0.958511 0.257344 -0.122599
vn -0.958511 0.257344 -0.122599
vn -0.001956 -0.040572 -0.999175
vn -0.001956 -0.040572 -0.999175
vn -0.001956 -0.040572 -0.999175
vn -0.014766 -0.998237 0.057491
vn -0.014766 -0.998237 0.057491
vn -0.014766 -0.998237 0.057491
vn -0.014766 -0.998237 0.057491
f 2/2/1 4/4/2 3/3/3
f 3/3/4 4/4/5 6/6/6 5/5/7
f 5/8/8 1/1/9 2/2/10 3/9/11
f 5/5/12 6/6/13 1/7/14
f 2/2/15 1/7/16 6/6/17 4/4/18
